<svg xmlns="http://www.w3.org/2000/svg" version="1.1" xmlns:xlink="http://www.w3.org/1999/xlink" xmlns:svgjs="http://svgjs.dev/svgjs" width="1440" height="560" preserveAspectRatio="none" viewBox="0 0 1440 560"><g mask="url(&quot;#SvgjsMask1008&quot;)" fill="none"><rect width="1440" height="560" x="0" y="0" fill="#0e2a47"></rect><path d="M751 457L750 600" stroke-width="8" stroke="url(&quot;#SvgjsLinearGradient1009&quot;)" stroke-linecap="round" class="Down"></path><path d="M331 345L330 596" stroke-width="8" stroke="url(&quot;#SvgjsLinearGradient1010&quot;)" stroke-linecap="round" class="Up"></path><path d="M1296 440L1295 86" stroke-width="8" stroke="url(&quot;#SvgjsLinearGradient1011&quot;)" stroke-linecap="round" class="Up"></path><path d="M1152 444L1151 855" stroke-width="10" stroke="url(&quot;#SvgjsLinearGradient1011&quot;)" stroke-linecap="round" class="Up"></path><path d="M1016 334L1015 691" stroke-width="10" stroke="url(&quot;#SvgjsLinearGradient1009&quot;)" stroke-linecap="round" class="Down"></path><path d="M402 48L401 -280" stroke-width="6" stroke="url(&quot;#SvgjsLinearGradient1012&quot;)" stroke-linecap="round" class="Down"></path><path d="M385 382L384 -6" stroke-width="8" stroke="url(&quot;#SvgjsLinearGradient1011&quot;)" stroke-linecap="round" class="Up"></path><path d="M271 524L270 357" stroke-width="10" stroke="url(&quot;#SvgjsLinearGradient1010&quot;)" stroke-linecap="round" class="Up"></path><path d="M79 13L78 -329" stroke-width="8" stroke="url(&quot;#SvgjsLinearGradient1011&quot;)" stroke-linecap="round" class="Up"></path><path d="M514 405L513 795" stroke-width="10" stroke="url(&quot;#SvgjsLinearGradient1011&quot;)" stroke-linecap="round" class="Up"></path><path d="M219 541L218 346" stroke-width="10" stroke="url(&quot;#SvgjsLinearGradient1009&quot;)" stroke-linecap="round" class="Down"></path><path d="M571 339L570 510" stroke-width="6" stroke="url(&quot;#SvgjsLinearGradient1011&quot;)" stroke-linecap="round" class="Up"></path><path d="M763 67L762 437" stroke-width="8" stroke="url(&quot;#SvgjsLinearGradient1011&quot;)" stroke-linecap="round" class="Up"></path><path d="M1001 54L1000 -147" stroke-width="8" stroke="url(&quot;#SvgjsLinearGradient1012&quot;)" stroke-linecap="round" class="Down"></path><path d="M1377 133L1376 340" stroke-width="10" stroke="url(&quot;#SvgjsLinearGradient1011&quot;)" stroke-linecap="round" class="Up"></path><path d="M78 44L77 197" stroke-width="10" stroke="url(&quot;#SvgjsLinearGradient1011&quot;)" stroke-linecap="round" class="Up"></path><path d="M156 148L155 -92" stroke-width="10" stroke="url(&quot;#SvgjsLinearGradient1009&quot;)" stroke-linecap="round" class="Down"></path><path d="M992 490L991 79" stroke-width="10" stroke="url(&quot;#SvgjsLinearGradient1011&quot;)" stroke-linecap="round" class="Up"></path><path d="M1337 285L1336 -39" stroke-width="10" stroke="url(&quot;#SvgjsLinearGradient1012&quot;)" stroke-linecap="round" class="Down"></path><path d="M1403 263L1402 567" stroke-width="8" stroke="url(&quot;#SvgjsLinearGradient1011&quot;)" stroke-linecap="round" class="Up"></path><path d="M679 429L678 58" stroke-width="8" stroke="url(&quot;#SvgjsLinearGradient1010&quot;)" stroke-linecap="round" class="Up"></path><path d="M1273 519L1272 120" stroke-width="6" stroke="url(&quot;#SvgjsLinearGradient1012&quot;)" stroke-linecap="round" class="Down"></path><path d="M1168 388L1167 108" stroke-width="8" stroke="url(&quot;#SvgjsLinearGradient1012&quot;)" stroke-linecap="round" class="Down"></path><path d="M145 557L144 219" stroke-width="10" stroke="url(&quot;#SvgjsLinearGradient1011&quot;)" stroke-linecap="round" class="Up"></path><path d="M306 56L305 -131" stroke-width="8" stroke="url(&quot;#SvgjsLinearGradient1012&quot;)" stroke-linecap="round" class="Down"></path><path d="M116 471L115 64" stroke-width="8" stroke="url(&quot;#SvgjsLinearGradient1009&quot;)" stroke-linecap="round" class="Down"></path><path d="M515 167L514 475" stroke-width="8" stroke="url(&quot;#SvgjsLinearGradient1011&quot;)" stroke-linecap="round" class="Up"></path><path d="M855 457L854 106" stroke-width="6" stroke="url(&quot;#SvgjsLinearGradient1012&quot;)" stroke-linecap="round" class="Down"></path><path d="M39 65L38 370" stroke-width="6" stroke="url(&quot;#SvgjsLinearGradient1011&quot;)" stroke-linecap="round" class="Up"></path><path d="M87 43L86 206" stroke-width="10" stroke="url(&quot;#SvgjsLinearGradient1010&quot;)" stroke-linecap="round" class="Up"></path><path d="M278 108L277 394" stroke-width="8" stroke="url(&quot;#SvgjsLinearGradient1009&quot;)" stroke-linecap="round" class="Down"></path><path d="M688 483L687 684" stroke-width="6" stroke="url(&quot;#SvgjsLinearGradient1012&quot;)" stroke-linecap="round" class="Down"></path><path d="M901 303L900 -87" stroke-width="10" stroke="url(&quot;#SvgjsLinearGradient1009&quot;)" stroke-linecap="round" class="Down"></path><path d="M1014 343L1013 193" stroke-width="8" stroke="url(&quot;#SvgjsLinearGradient1012&quot;)" stroke-linecap="round" class="Down"></path><path d="M1210 487L1209 630" stroke-width="8" stroke="url(&quot;#SvgjsLinearGradient1010&quot;)" stroke-linecap="round" class="Up"></path><path d="M353 263L352 -40" stroke-width="10" stroke="url(&quot;#SvgjsLinearGradient1011&quot;)" stroke-linecap="round" class="Up"></path></g><defs><mask id="SvgjsMask1008"><rect width="1440" height="560" fill="#ffffff"></rect></mask><linearGradient x1="0%" y1="0%" x2="0%" y2="100%" id="SvgjsLinearGradient1009"><stop stop-color="rgba(28, 83, 142, 0)" offset="0"></stop><stop stop-color="#1c538e" offset="1"></stop></linearGradient><linearGradient x1="0%" y1="100%" x2="0%" y2="0%" id="SvgjsLinearGradient1010"><stop stop-color="rgba(28, 83, 142, 0)" offset="0"></stop><stop stop-color="#1c538e" offset="1"></stop></linearGradient><linearGradient x1="0%" y1="100%" x2="0%" y2="0%" id="SvgjsLinearGradient1011"><stop stop-color="rgba(62, 105, 133, 0)" offset="0"></stop><stop stop-color="rgba(62, 105, 133, 1)" offset="1"></stop></linearGradient><linearGradient x1="0%" y1="0%" x2="0%" y2="100%" id="SvgjsLinearGradient1012"><stop stop-color="rgba(62, 105, 133, 0)" offset="0"></stop><stop stop-color="rgba(62, 105, 133, 1)" offset="1"></stop></linearGradient></defs></svg>